{"title":"Barfi! 2012 Audio Cleaned SCamRip MPEG PS (DDD) - Hindi","uid":7635761,"size":889403392,"categoryP":"video","categoryS":"movies","magnet":"?xt=urn:btih:580f077e8c8dffba6f5508010585fb34b810dab3&amp;dn=Barfi%21+2012+Audio+Cleaned+SCamRip+MPEG+PS+%28DDD%29+-+Hindi&amp;tr=udp%3A%2F%2Ftracker.openbittorrent.com%3A80&amp;tr=udp%3A%2F%2Fopen.demonii.com%3A1337&amp;tr=udp%3A%2F%2Ftracker.coppersurfer.tk%3A6969&amp;tr=udp%3A%2F%2Fexodus.desync.com%3A6969","seeders":1,"leechers":0,"uploader":"SJonam","files":1,"time":1347639300,"description":" &lt;a href=&quot;http://desibbrg.org/images/66952052392581364616.gif&quot; rel=&quot;nofollow&quot; target=&quot;_NEW&quot;&gt;http://desibbrg.org/images/66952052392581364616.gif&lt;/a&gt;\n &lt;a href=&quot;\nhttp://desibbrg.org/images/61616201142242754850.jpg&quot; rel=&quot;nofollow&quot; target=&quot;_NEW&quot;&gt;\nhttp://desibbrg.org/images/61616201142242754850.jpg&lt;/a&gt;\n &lt;a href=&quot;\nhttp://desibbrg.org/images/47545220302665047391.jpg&quot; rel=&quot;nofollow&quot; target=&quot;_NEW&quot;&gt;\nhttp://desibbrg.org/images/47545220302665047391.jpg&lt;/a&gt;\n\nInfo - \nGeneral\nFormat : MPEG-PS\nFile size : 848 MiB\nDuration : 2h 10mn\nOverall bit rate : 909 Kbps\nVideo #224\nID : 224 (0xE0)\nFormat : MPEG Video\nFormat version : Version 2\nFormat profile : Main@Main\nFormat settings, BVOP : No\nFormat settings, Matrix : Default\nDuration : 2h 10mn\nBit rate mode : Variable\nBit rate : 795 Kbps\nWidth : 352 pixels\nHeight : 288 pixels\nDisplay aspect ratio : 4:3\nFrame rate : 25.000 fps\nStandard : PAL\nColor space : YUV\nChroma subsampling : 4:2:0\nBit depth : 8 bits\nScan type : Progressive\nCompression mode : Lossy\nBits/(Pixel*Frame) : 0.314\nStream size : 742 MiB (87%)\n\nAudio #192\nID : 192 (0xC0)\nFormat : MPEG Audio\nFormat version : Version 1\nFormat profile : Layer 2\nDuration : 2h 10mn\nBit rate mode : Constant\nBit rate : 96.0 Kbps\nChannel(s) : 2 channels\nSampling rate : 48.0 KHz\nCompression mode : Lossy\nStream size : 89.6 MiB (11%)\n\nRipper : Deshi Digital Dhoom\n\nSeeding 24x7... Extreme Seeding...\n\n\nEnjoy!\n","torrent":{"xt":"urn:btih:580f077e8c8dffba6f5508010585fb34b810dab3","amp;dn":"Barfi%21+2012+Audio+Cleaned+SCamRip+MPEG+PS+%28DDD%29+-+Hindi","amp;tr":["udp%3A%2F%2Ftracker.openbittorrent.com%3A80","udp%3A%2F%2Fopen.demonii.com%3A1337","udp%3A%2F%2Ftracker.coppersurfer.tk%3A6969","udp%3A%2F%2Fexodus.desync.com%3A6969"],"infoHash":"580f077e8c8dffba6f5508010585fb34b810dab3","infoHashBuffer":{"type":"Buffer","data":[88,15,7,126,140,141,255,186,111,85,8,1,5,133,251,52,184,16,218,179]},"announce":[],"urlList":[]}}